<svg width="100" height="28" viewBox="0 0 100 28" fill="none" xmlns="http://www.w3.org/2000/svg">
<g clip-path="url(#clip0_444_5788)">
<g clip-path="url(#clip1_444_5788)">
<g clip-path="url(#clip2_444_5788)">
<path d="M23.6094 3.90428L26.9726 3.4103L28.4568 0.367188L29.9802 3.4103L33.344 3.90428L30.9092 6.30196L31.4846 9.6883L28.4764 8.08962L25.468 9.6883L26.0428 6.30196L23.6094 3.90428Z" fill="#F5F5F5"/>
<path d="M15.1534 8.8512C15.0834 7.968 14.7579 7.2787 14.1768 6.78402C13.5957 6.28932 12.715 6.04234 11.5354 6.04234C10.7835 6.04234 10.1702 6.13292 9.69344 6.3141C9.21668 6.49526 8.86522 6.74014 8.6384 7.0494C8.41086 7.35866 8.29326 7.7118 8.28416 8.10954C8.26666 8.43648 8.32546 8.73018 8.46128 8.99062C8.5964 9.25106 8.81272 9.4853 9.11026 9.69336C9.4071 9.90072 9.78724 10.089 10.2507 10.2567C10.7135 10.4244 11.2644 10.5745 11.9022 10.7068L14.1047 11.1838C15.5903 11.5015 16.8616 11.9212 17.9195 12.4428C18.9766 12.9644 19.8419 13.5758 20.5148 14.2778C21.1874 14.9799 21.6832 15.7683 22.0024 16.643C22.3216 17.5177 22.4854 18.4717 22.4938 19.5049C22.4848 21.2898 22.0438 22.8 21.17 24.0364C20.2962 25.2734 19.0487 26.214 17.4273 26.8586C15.8059 27.5034 13.8597 27.826 11.5879 27.826C9.31608 27.826 7.22072 27.4772 5.4859 26.7794C3.75108 26.0816 2.4055 25.0058 1.44848 23.553C0.491462 22.1008 0.00840106 20.2388 0 17.9678H6.92108C6.96448 18.7979 7.17032 19.4964 7.53716 20.0612C7.904 20.6266 8.42208 21.0548 9.09066 21.3464C9.75924 21.638 10.5566 21.7838 11.4829 21.7838C12.2607 21.7838 12.9117 21.6868 13.4361 21.4922C13.9605 21.2976 14.3581 21.0286 14.6291 20.684C14.9 20.3392 15.04 19.9465 15.0484 19.5049C15.0393 19.0902 14.9063 18.7257 14.6487 18.4115C14.391 18.098 13.9689 17.8149 13.3836 17.5637C12.7983 17.3118 12.0072 17.0754 11.011 16.8546L8.33666 16.2714C5.95986 15.7506 4.08712 14.878 2.71984 13.6544C1.35187 12.4307 0.672786 10.7592 0.681886 8.6389C0.672786 6.91636 1.12924 5.40824 2.05196 4.11386C2.97398 2.81948 4.25444 1.8103 5.89264 1.08561C7.53086 0.362342 9.412 0 11.5354 0C13.6587 0 15.577 0.366588 17.1592 1.09977C18.7407 1.83294 19.9623 2.86406 20.8228 4.19382C21.6832 5.5236 22.118 7.07558 22.127 8.8512H15.1534Z" fill="#F5F5F5"/>
<path d="M36.0945 0.367188H43.2773V18.9712C43.2689 20.7383 42.8293 22.2903 41.9597 23.6293C41.0903 24.9675 39.8931 26.0099 38.3683 26.7567C36.8435 27.5033 35.0891 27.8763 33.1051 27.8763C31.3835 27.8763 29.8105 27.5733 28.3857 26.9683C26.9611 26.3631 25.8249 25.4091 24.9777 24.1055C24.1299 22.8027 23.7105 21.1091 23.7189 19.0243H31.0069C31.0335 19.7044 31.1491 20.2791 31.3541 20.7469C31.5593 21.2153 31.8477 21.5663 32.2195 21.7999C32.5905 22.0341 33.0435 22.1509 33.5763 22.1509C34.1091 22.1509 34.5745 22.0321 34.9463 21.7935C35.3173 21.5551 35.5995 21.1997 35.7921 20.7271C35.9839 20.2543 36.0847 19.669 36.0937 18.9712V0.367188H36.0945Z" fill="#F5F5F5"/>
<path d="M44.4774 0.367188H53.5484L59.7882 15.7384H60.1026L66.3418 0.367188H75.4128V27.5047H68.2818V11.8157H68.0718L62.0944 27.2931H57.7952L51.8178 11.7102H51.6078V27.5053H44.4766V0.367188H44.4774Z" fill="#F5F5F5"/>
<path d="M76.6641 6.30409V0.367188H99.9967V6.30337H91.9219V27.5047H84.7389V6.30409H76.6641Z" fill="#F5F5F5"/>
</g>
</g>
</g>
<defs>
<clipPath id="clip0_444_5788">
<rect width="100" height="28" fill="white"/>
</clipPath>
<clipPath id="clip1_444_5788">
<rect width="100" height="28" fill="white"/>
</clipPath>
<clipPath id="clip2_444_5788">
<rect width="100" height="28" fill="white"/>
</clipPath>
</defs>
</svg>
